<svg id="Layer_1" data-name="Layer 1" xmlns="http://www.w3.org/2000/svg" viewBox="0 0 53.22 58.36"><defs><style>.cls-1{fill:#e5e5e5;}</style></defs><title>comilla izquierda</title><path class="cls-1" d="M6.59,58.36A46.42,46.42,0,0,1,.84,43.29a45.38,45.38,0,0,1-.3-15.67A46.37,46.37,0,0,1,15.76,0L21.2,3.43A2.56,2.56,0,0,1,22.56,5.9a3.57,3.57,0,0,1-1,2.26A30.66,30.66,0,0,0,17.12,16,35.36,35.36,0,0,0,14.75,26a40.16,40.16,0,0,0,.5,10.93,32.18,32.18,0,0,0,4.14,10.89,4.45,4.45,0,0,1,.75,3.78A4.07,4.07,0,0,1,17.67,54Zm30.64,0a46.65,46.65,0,0,1-5.75-15.07,45.63,45.63,0,0,1-.3-15.67A46.37,46.37,0,0,1,46.4,0l5.44,3.43A2.55,2.55,0,0,1,53.2,5.9a3.62,3.62,0,0,1-1,2.26A30.38,30.38,0,0,0,47.76,16,35.71,35.71,0,0,0,45.39,26a40.17,40.17,0,0,0,.51,10.93A32.15,32.15,0,0,0,50,47.78a4.49,4.49,0,0,1,.76,3.78A4.1,4.1,0,0,1,48.32,54Z"/></svg>