<svg id="Layer_1" data-name="Layer 1" xmlns="http://www.w3.org/2000/svg" viewBox="0 0 53.22 58.36"><defs><style>.cls-1{fill:#e5e5e5;}</style></defs><title>comilla derecha</title><path class="cls-1" d="M15.8,0a46.43,46.43,0,0,1,5.82,15.09A45.77,45.77,0,0,1,22,30.82a46.58,46.58,0,0,1-5,14.94A45.05,45.05,0,0,1,6.92,58.51L1.46,55A2.38,2.38,0,0,1,.08,52.65a4.1,4.1,0,0,1,1-2.38,30.55,30.55,0,0,0,4.45-7.83,36.61,36.61,0,0,0,2.37-9.89,38,38,0,0,0-.56-10.93A33,33,0,0,0,3.05,10.75,4.43,4.43,0,0,1,2.28,7,4.07,4.07,0,0,1,4.74,4.49ZM46.45-.15a46.63,46.63,0,0,1,5.81,15.09,45.53,45.53,0,0,1,.38,15.73,46.56,46.56,0,0,1-5,14.94A45.09,45.09,0,0,1,37.56,58.36l-5.46-3.5a2.37,2.37,0,0,1-1.37-2.36,4.1,4.1,0,0,1,.94-2.38,30.38,30.38,0,0,0,4.45-7.83,35.88,35.88,0,0,0,2.37-9.89,37.61,37.61,0,0,0-.56-10.93A32.93,32.93,0,0,0,33.7,10.6a4.44,4.44,0,0,1-.78-3.78,4.07,4.07,0,0,1,2.46-2.48Z"/></svg>